<svg xmlns="http://www.w3.org/2000/svg" width="512" height="512" viewBox="0 0 512 512">
  <defs>
    <linearGradient id="tile" x1="0" y1="0" x2="0" y2="1">
      <stop offset="0" stop-color="#12406b"/>
      <stop offset="1" stop-color="#061c31"/>
    </linearGradient>
    <linearGradient id="dfxw_p0" x1="122.111" y1="64.6777" x2="45.9618" y2="103.949" gradientUnits="userSpaceOnUse">
      <stop offset="0.04" stop-color="#F5516C"/><stop offset="0.14" stop-color="#C74863"/><stop offset="0.31" stop-color="#853B57"/><stop offset="0.44" stop-color="#55324E"/><stop offset="0.55" stop-color="#382D49"/><stop offset="0.61" stop-color="#2D2B47"/>
    </linearGradient>
    <linearGradient id="dfxw_p1" x1="75.8868" y1="50.7468" x2="15.2815" y2="122.952" gradientUnits="userSpaceOnUse">
      <stop offset="0.2" stop-color="#F5516C"/><stop offset="1" stop-color="#6B3753"/>
    </linearGradient>
  </defs>
  <rect width="512" height="512" fill="url(#tile)"/>
  <!-- DFX mark (emblem + D), centred within the maskable safe zone -->
  <g transform="translate(72 106) scale(1.767)">
    <path fill-rule="evenodd" clip-rule="evenodd" d="M61.5031 0H124.245C170.646 0 208.267 36.5427 208.267 84.0393C208.267 131.536 169.766 170.018 122.288 170.018H61.5031V135.504H114.046C141.825 135.504 164.541 112.789 164.541 85.009C164.541 57.2293 141.825 34.5136 114.046 34.5136H61.5031V0Z" fill="white"/>
    <path d="M86.1582 126.274C109.821 126.274 129.004 107.092 129.004 83.4287C129.004 59.7657 109.821 40.583 86.1582 40.583C62.4952 40.583 43.3126 59.7657 43.3126 83.4287C43.3126 107.092 62.4952 126.274 86.1582 126.274Z" fill="url(#dfxw_p0)"/>
    <path d="M47.1374 132.146C73.1707 132.146 94.2748 111.042 94.2748 85.009C94.2748 58.9757 73.1707 37.8716 47.1374 37.8716C21.1041 37.8716 0 58.9757 0 85.009C0 111.042 21.1041 132.146 47.1374 132.146Z" fill="url(#dfxw_p1)"/>
  </g>
</svg>
