<svg width="254" height="192" viewBox="0 0 254 192" fill="none" xmlns="http://www.w3.org/2000/svg">
<g clip-path="url(#clip0_4035_11198)">
<path d="M179.131 171.762L251.52 99.3729C253.39 97.5036 253.39 94.4693 251.52 92.5729L164.989 6.06858L132.668 38.3892L186.879 92.6C188.748 94.4693 188.748 97.5036 186.879 99.4L146.837 139.442L179.158 171.762H179.131Z" fill="white"/>
<path d="M158.92 192L66.3203 99.4C64.4509 97.5307 64.4509 94.4964 66.3203 92.6L158.92 0H96.2568C94.9835 0 93.7643 0.514745 92.8703 1.40878L1.652 92.6C-0.217335 94.4693 -0.217335 97.5036 1.652 99.4L92.8432 190.591C93.7372 191.485 94.9564 192 96.2297 192H158.92Z" fill="white"/>
</g>
<defs>
<clipPath id="clip0_4035_11198">
<rect width="253.5" height="192" fill="white" transform="translate(0.25)"/>
</clipPath>
</defs>
</svg>
