<svg viewBox="0 0 96 97" fill="none" xmlns="http://www.w3.org/2000/svg"><g clip-path="url(#deps_a)"><path fill="url(#deps_b)" d="M48 96.6c26.51 0 48-21.49 48-48S74.51.6 48 .6 0 22.09 0 48.6s21.49 48 48 48Z"></path><path fill="url(#deps_c)" d="M48 96.6c26.51 0 48-21.49 48-48S74.51.6 48 .6 0 22.09 0 48.6s21.49 48 48 48Z"></path><path fill="url(#deps_d)" d="M48 3.6c24.81 0 45 20.19 45 45s-20.19 45-45 45-45-20.19-45-45 20.19-45 45-45Zm0-3C21.48.6 0 22.08 0 48.6s21.48 48 48 48 48-21.48 48-48S74.52.6 48 .6Z"></path><path fill="#272B38" fill-opacity="0.45" d="M28.1 75v3.6h39.6V75H28.1ZM28.1 60.6h-3.6V75h3.6V60.6ZM67.7 75h3.6V60.6h-3.6V75ZM49.7 49.8v-3.6h3.6v-3.6h-3.6v-7.2h-3.6v10.8H35.3v3.6h10.8v14.4h-3.6v3.6h-3.6v3.6h18v-3.6h-3.6v-3.6h-3.6V53.4h14.4v-3.6H49.7ZM67.7 46.2h-3.6v3.6h3.6v-3.6ZM35.3 42.6h-3.6v3.6h3.6v-3.6Z"></path><path fill="#272B38" fill-opacity="0.45" d="M56.9 39h-3.6v3.6h3.6V39ZM31.7 39h-3.6v3.6h3.6V39ZM56.9 35.4V39h10.8v7.2h3.6V35.4H56.9ZM46.1 31.8h-3.6v3.6h3.6v-3.6ZM28.1 28.2h10.8v-3.6H24.5V39h3.6V28.2Z"></path><path fill="#272B38" fill-opacity="0.45" d="M42.5 28.2h-3.6v3.6h3.6v-3.6Z"></path><path fill="url(#deps_e)" d="M28.1 72v3.6h39.6V72H28.1Z"></path><path fill="url(#deps_f)" d="M28.1 57.6h-3.6V72h3.6V57.6Z"></path><path fill="url(#deps_g)" d="M67.7 72h3.6V57.6h-3.6V72Z"></path><path fill="url(#deps_h)" d="M49.7 46.8v-3.6h3.6v-3.6h-3.6v-7.2h-3.6v10.8H35.3v3.6h10.8v14.4h-3.6v3.6h-3.6v3.6h18v-3.6h-3.6v-3.6h-3.6V50.4h14.4v-3.6H49.7Z"></path><path fill="url(#deps_i)" d="M67.7 43.2h-3.6v3.6h3.6v-3.6Z"></path><path fill="url(#deps_j)" d="M35.3 39.6h-3.6v3.6h3.6v-3.6Z"></path><path fill="url(#deps_k)" d="M56.9 36h-3.6v3.6h3.6V36Z"></path><path fill="url(#deps_l)" d="M31.7 36h-3.6v3.6h3.6V36Z"></path><path fill="url(#deps_m)" d="M56.9 32.4V36h10.8v7.2h3.6V32.4H56.9Z"></path><path fill="url(#deps_n)" d="M46.1 28.8h-3.6v3.6h3.6v-3.6Z"></path><path fill="url(#deps_o)" d="M28.1 25.2h10.8v-3.6H24.5V36h3.6V25.2Z"></path><path fill="url(#deps_p)" d="M42.5 25.2h-3.6v3.6h3.6v-3.6Z"></path></g><defs><linearGradient id="deps_b" x1="48" x2="48" y1="96.6" y2="0.6" gradientUnits="userSpaceOnUse"><stop stop-color="#424756"></stop><stop offset="0.31" stop-color="#505565"></stop><stop offset="0.42" stop-color="#5F6475"></stop><stop offset="0.61" stop-color="#747A8B"></stop><stop offset="0.73" stop-color="#7C8394"></stop><stop offset="0.88" stop-color="#757C8C"></stop><stop offset="1" stop-color="#6E7484"></stop></linearGradient><linearGradient id="deps_d" x1="48" x2="48" y1="96.6" y2="0.6" gradientUnits="userSpaceOnUse"><stop stop-color="#6D6E7C"></stop><stop offset="0.17" stop-color="#7A7C8A"></stop><stop offset="0.51" stop-color="#9EA2B1"></stop><stop offset="0.67" stop-color="#B3B8C7"></stop></linearGradient><linearGradient id="deps_e" x1="47.9" x2="47.9" y1="30.24" y2="75.6" gradientUnits="userSpaceOnUse"><stop offset="0.4" stop-color="#fff"></stop><stop offset="0.675" stop-color="#EAEAEC"></stop><stop offset="0.865" stop-color="#C4C6CB"></stop><stop offset="0.99" stop-color="#B6B8BF"></stop></linearGradient><linearGradient id="deps_f" x1="47.9" x2="47.9" y1="30.24" y2="75.6" gradientUnits="userSpaceOnUse"><stop offset="0.4" stop-color="#fff"></stop><stop offset="0.675" stop-color="#EAEAEC"></stop><stop offset="0.865" stop-color="#C4C6CB"></stop><stop offset="0.99" stop-color="#B6B8BF"></stop></linearGradient><linearGradient id="deps_g" x1="47.9" x2="47.9" y1="30.24" y2="75.6" gradientUnits="userSpaceOnUse"><stop offset="0.4" stop-color="#fff"></stop><stop offset="0.675" stop-color="#EAEAEC"></stop><stop offset="0.865" stop-color="#C4C6CB"></stop><stop offset="0.99" stop-color="#B6B8BF"></stop></linearGradient><linearGradient id="deps_h" x1="47.9" x2="47.9" y1="30.24" y2="75.6" gradientUnits="userSpaceOnUse"><stop offset="0.4" stop-color="#fff"></stop><stop offset="0.675" stop-color="#EAEAEC"></stop><stop offset="0.865" stop-color="#C4C6CB"></stop><stop offset="0.99" stop-color="#B6B8BF"></stop></linearGradient><linearGradient id="deps_i" x1="47.9" x2="47.9" y1="30.24" y2="75.6" gradientUnits="userSpaceOnUse"><stop offset="0.4" stop-color="#fff"></stop><stop offset="0.675" stop-color="#EAEAEC"></stop><stop offset="0.865" stop-color="#C4C6CB"></stop><stop offset="0.99" stop-color="#B6B8BF"></stop></linearGradient><linearGradient id="deps_j" x1="47.9" x2="47.9" y1="30.24" y2="75.6" gradientUnits="userSpaceOnUse"><stop offset="0.4" stop-color="#fff"></stop><stop offset="0.675" stop-color="#EAEAEC"></stop><stop offset="0.865" stop-color="#C4C6CB"></stop><stop offset="0.99" stop-color="#B6B8BF"></stop></linearGradient><linearGradient id="deps_k" x1="47.9" x2="47.9" y1="30.24" y2="75.6" gradientUnits="userSpaceOnUse"><stop offset="0.4" stop-color="#fff"></stop><stop offset="0.675" stop-color="#EAEAEC"></stop><stop offset="0.865" stop-color="#C4C6CB"></stop><stop offset="0.99" stop-color="#B6B8BF"></stop></linearGradient><linearGradient id="deps_l" x1="47.9" x2="47.9" y1="30.24" y2="75.6" gradientUnits="userSpaceOnUse"><stop offset="0.4" stop-color="#fff"></stop><stop offset="0.675" stop-color="#EAEAEC"></stop><stop offset="0.865" stop-color="#C4C6CB"></stop><stop offset="0.99" stop-color="#B6B8BF"></stop></linearGradient><linearGradient id="deps_m" x1="47.9" x2="47.9" y1="30.24" y2="75.6" gradientUnits="userSpaceOnUse"><stop offset="0.4" stop-color="#fff"></stop><stop offset="0.675" stop-color="#EAEAEC"></stop><stop offset="0.865" stop-color="#C4C6CB"></stop><stop offset="0.99" stop-color="#B6B8BF"></stop></linearGradient><linearGradient id="deps_n" x1="47.9" x2="47.9" y1="30.24" y2="75.6" gradientUnits="userSpaceOnUse"><stop offset="0.4" stop-color="#fff"></stop><stop offset="0.675" stop-color="#EAEAEC"></stop><stop offset="0.865" stop-color="#C4C6CB"></stop><stop offset="0.99" stop-color="#B6B8BF"></stop></linearGradient><linearGradient id="deps_o" x1="47.9" x2="47.9" y1="30.24" y2="75.6" gradientUnits="userSpaceOnUse"><stop offset="0.4" stop-color="#fff"></stop><stop offset="0.675" stop-color="#EAEAEC"></stop><stop offset="0.865" stop-color="#C4C6CB"></stop><stop offset="0.99" stop-color="#B6B8BF"></stop></linearGradient><linearGradient id="deps_p" x1="47.9" x2="47.9" y1="30.24" y2="75.6" gradientUnits="userSpaceOnUse"><stop offset="0.4" stop-color="#fff"></stop><stop offset="0.675" stop-color="#EAEAEC"></stop><stop offset="0.865" stop-color="#C4C6CB"></stop><stop offset="0.99" stop-color="#B6B8BF"></stop></linearGradient><radialGradient id="deps_c" cx="0" cy="0" r="1" gradientTransform="matrix(0 48 -48 0 48 48.6)" gradientUnits="userSpaceOnUse"><stop offset="0.802" stop-color="#272B38" stop-opacity="0"></stop><stop offset="0.848" stop-color="#272B38" stop-opacity="0.042"></stop><stop offset="0.883" stop-color="#272B38" stop-opacity="0.095"></stop><stop offset="0.914" stop-color="#272B38" stop-opacity="0.15"></stop><stop offset="0.957" stop-color="#272B38" stop-opacity="0.34"></stop></radialGradient><clipPath id="deps_a"><path fill="#fff" d="M0 .6h96v96H0z"></path></clipPath></defs></svg>