<svg viewBox="0 0 96 97" fill="none" xmlns="http://www.w3.org/2000/svg"><g clip-path="url(#deuro_a)"><path fill="url(#deuro_b)" d="M48 96.6c26.51 0 48-21.49 48-48S74.51.6 48 .6 0 22.09 0 48.6s21.49 48 48 48Z"></path><path fill="url(#deuro_c)" d="M48 96.6c26.51 0 48-21.49 48-48S74.51.6 48 .6 0 22.09 0 48.6s21.49 48 48 48Z"></path><path fill="url(#deuro_d)" d="M48 3.6c24.81 0 45 20.19 45 45s-20.19 45-45 45-45-20.19-45-45 20.19-45 45-45Zm0-3C21.48.6 0 22.08 0 48.6s21.48 48 48 48 48-21.48 48-48S74.52.6 48 .6Z"></path><path fill="#272B38" fill-opacity="0.45" d="M60 78.6v-6H36v6h24ZM66 66.6h-6v6h6v-6ZM36 66.6h-6v6h6v-6ZM72 60.6h-6v6h6v-6ZM72 36.6h-6v6h6v-6ZM24 42.6h-6v6h6v6h-6v6h6v6h6v-6h24v-6H30v-6h30v-6H30v-6h-6v6ZM66 30.6h-6v6h6v-6Z"></path><path fill="#272B38" fill-opacity="0.45" d="M36 30.6h-6v6h6v-6ZM36 24.6v6h24v-6H36Z"></path><path fill="url(#deuro_e)" d="M60 75.6v-6H36v6h24Z"></path><path fill="url(#deuro_f)" d="M66 63.6h-6v6h6v-6Z"></path><path fill="url(#deuro_g)" d="M36 63.6h-6v6h6v-6Z"></path><path fill="url(#deuro_h)" d="M72 57.6h-6v6h6v-6Z"></path><path fill="url(#deuro_i)" d="M72 33.6h-6v6h6v-6Z"></path><path fill="url(#deuro_j)" d="M24 39.6h-6v6h6v6h-6v6h6v6h6v-6h24v-6H30v-6h30v-6H30v-6h-6v6Z"></path><path fill="url(#deuro_k)" d="M66 27.6h-6v6h6v-6Z"></path><path fill="url(#deuro_l)" d="M36 27.6h-6v6h6v-6Z"></path><path fill="url(#deuro_m)" d="M36 21.6v6h24v-6H36Z"></path></g><defs><linearGradient id="deuro_b" x1="48" x2="48" y1="96.6" y2="0.6" gradientUnits="userSpaceOnUse"><stop stop-color="#424756"></stop><stop offset="0.31" stop-color="#505565"></stop><stop offset="0.42" stop-color="#5F6475"></stop><stop offset="0.61" stop-color="#747A8B"></stop><stop offset="0.73" stop-color="#7C8394"></stop><stop offset="0.88" stop-color="#757C8C"></stop><stop offset="1" stop-color="#6E7484"></stop></linearGradient><linearGradient id="deuro_d" x1="48" x2="48" y1="96.6" y2="0.6" gradientUnits="userSpaceOnUse"><stop stop-color="#6D6E7C"></stop><stop offset="0.17" stop-color="#7A7C8A"></stop><stop offset="0.51" stop-color="#9EA2B1"></stop><stop offset="0.67" stop-color="#B3B8C7"></stop></linearGradient><linearGradient id="deuro_e" x1="45" x2="45" y1="24.6" y2="72.1" gradientUnits="userSpaceOnUse"><stop offset="0.4" stop-color="#fff"></stop><stop offset="0.54" stop-color="#EAEAEC"></stop><stop offset="0.84" stop-color="#C4C6CB"></stop><stop offset="0.99" stop-color="#B6B8BF"></stop></linearGradient><linearGradient id="deuro_f" x1="45" x2="45" y1="24.6" y2="72.1" gradientUnits="userSpaceOnUse"><stop offset="0.4" stop-color="#fff"></stop><stop offset="0.54" stop-color="#EAEAEC"></stop><stop offset="0.84" stop-color="#C4C6CB"></stop><stop offset="0.99" stop-color="#B6B8BF"></stop></linearGradient><linearGradient id="deuro_g" x1="45" x2="45" y1="24.6" y2="72.1" gradientUnits="userSpaceOnUse"><stop offset="0.4" stop-color="#fff"></stop><stop offset="0.54" stop-color="#EAEAEC"></stop><stop offset="0.84" stop-color="#C4C6CB"></stop><stop offset="0.99" stop-color="#B6B8BF"></stop></linearGradient><linearGradient id="deuro_h" x1="45" x2="45" y1="24.6" y2="72.1" gradientUnits="userSpaceOnUse"><stop offset="0.4" stop-color="#fff"></stop><stop offset="0.54" stop-color="#EAEAEC"></stop><stop offset="0.84" stop-color="#C4C6CB"></stop><stop offset="0.99" stop-color="#B6B8BF"></stop></linearGradient><linearGradient id="deuro_i" x1="45" x2="45" y1="24.6" y2="72.1" gradientUnits="userSpaceOnUse"><stop offset="0.4" stop-color="#fff"></stop><stop offset="0.54" stop-color="#EAEAEC"></stop><stop offset="0.84" stop-color="#C4C6CB"></stop><stop offset="0.99" stop-color="#B6B8BF"></stop></linearGradient><linearGradient id="deuro_j" x1="45" x2="45" y1="24.6" y2="72.1" gradientUnits="userSpaceOnUse"><stop offset="0.4" stop-color="#fff"></stop><stop offset="0.54" stop-color="#EAEAEC"></stop><stop offset="0.84" stop-color="#C4C6CB"></stop><stop offset="0.99" stop-color="#B6B8BF"></stop></linearGradient><linearGradient id="deuro_k" x1="45" x2="45" y1="24.6" y2="72.1" gradientUnits="userSpaceOnUse"><stop offset="0.4" stop-color="#fff"></stop><stop offset="0.54" stop-color="#EAEAEC"></stop><stop offset="0.84" stop-color="#C4C6CB"></stop><stop offset="0.99" stop-color="#B6B8BF"></stop></linearGradient><linearGradient id="deuro_l" x1="45" x2="45" y1="24.6" y2="72.1" gradientUnits="userSpaceOnUse"><stop offset="0.4" stop-color="#fff"></stop><stop offset="0.54" stop-color="#EAEAEC"></stop><stop offset="0.84" stop-color="#C4C6CB"></stop><stop offset="0.99" stop-color="#B6B8BF"></stop></linearGradient><linearGradient id="deuro_m" x1="45" x2="45" y1="24.6" y2="72.1" gradientUnits="userSpaceOnUse"><stop offset="0.4" stop-color="#fff"></stop><stop offset="0.54" stop-color="#EAEAEC"></stop><stop offset="0.84" stop-color="#C4C6CB"></stop><stop offset="0.99" stop-color="#B6B8BF"></stop></linearGradient><radialGradient id="deuro_c" cx="0" cy="0" r="1" gradientTransform="matrix(0 48 -48 0 48 48.6)" gradientUnits="userSpaceOnUse"><stop offset="0.802" stop-color="#272B38" stop-opacity="0"></stop><stop offset="0.848" stop-color="#272B38" stop-opacity="0.042"></stop><stop offset="0.883" stop-color="#272B38" stop-opacity="0.095"></stop><stop offset="0.914" stop-color="#272B38" stop-opacity="0.15"></stop><stop offset="0.957" stop-color="#272B38" stop-opacity="0.34"></stop></radialGradient><clipPath id="deuro_a"><path fill="#fff" d="M0 .6h96v96H0z"></path></clipPath></defs></svg>