<svg width="26" height="28" viewBox="0 0 26 28" fill="none" xmlns="http://www.w3.org/2000/svg">
<path d="M23.7126 5.86994L14.1779 0.410174C13.223 -0.136725 12.0499 -0.136725 11.095 0.410174L1.56036 5.86994C0.5953 6.42277 0 7.44973 0 8.56163V19.438C0 20.5503 0.5953 21.5772 1.56036 22.1297L11.095 27.5898C12.0499 28.1367 13.223 28.1367 14.1779 27.5898L23.7126 22.1297C24.6776 21.5772 25.2729 20.5503 25.2729 19.438V8.56163C25.2729 7.4494 24.6776 6.42244 23.7126 5.86994ZM22.2678 17.8451C22.2678 18.8687 21.7192 19.8137 20.8306 20.3211L14.0505 24.1932C13.1743 24.6937 12.0986 24.6937 11.2225 24.1932L4.44236 20.3211C3.55369 19.8134 3.00514 18.8684 3.00514 17.8451V10.1546C3.00514 9.13092 3.55369 8.18595 4.44236 7.67856L11.2225 3.80648C12.0986 3.306 13.1743 3.306 14.0505 3.80648L20.8306 7.67856C21.7192 8.18628 22.2678 9.13125 22.2678 10.1546V17.8451Z" fill="#1988C6"/>
</svg>
